<svg width="20" height="15" viewBox="0 0 20 15" fill="none" xmlns="http://www.w3.org/2000/svg">
<path d="M2.18359 0.75H17.8164C18.6055 0.750179 19.2498 1.39451 19.25 2.18359V4.96387H17.8574C16.6558 4.96387 15.6788 5.94094 15.6787 7.14258C15.6787 8.34428 16.6557 9.32129 17.8574 9.32129H19.25V12.1016C19.25 12.8906 18.6057 13.535 17.8154 13.5352H2.18359C1.3944 13.535 0.75 12.8908 0.75 12.1016V9.32129H2.14258C3.34429 9.32129 4.32129 8.34428 4.32129 7.14258C4.32119 5.94095 3.34423 4.96387 2.14258 4.96387H0.75V2.18359C0.750179 1.39451 1.39451 0.750178 2.18359 0.75Z" fill="#126DFB" stroke="#126DFB" stroke-width="1.5"/>
<path d="M13.2818 4.88366L8.04293 10.304C7.90664 10.4441 7.73035 10.5142 7.55236 10.5142C7.37439 10.5142 7.19639 10.4442 7.06094 10.304C6.78917 10.0237 6.78917 9.56919 7.06094 9.28801L12.2998 3.86766C12.5707 3.58647 13.0101 3.58737 13.2818 3.86766C13.5536 4.14794 13.5536 4.60247 13.2818 4.88366Z" fill="white"/>
<path d="M7.30926 5.08488C7.30926 4.55577 7.72428 4.12637 8.23568 4.12637C8.74708 4.12637 9.1621 4.55577 9.1621 5.08488C9.1621 5.61399 8.74708 6.04339 8.23568 6.04339C7.72428 6.04339 7.30926 5.61399 7.30926 5.08488Z" fill="white"/>
<path d="M11.1808 9.08679C11.1808 8.55768 11.5958 8.12828 12.1072 8.12828C12.6186 8.12828 13.0336 8.55768 13.0336 9.08679C13.0336 9.6159 12.6186 10.0453 12.1072 10.0453C11.5958 10.0453 11.1808 9.6159 11.1808 9.08679Z" fill="white"/>
</svg>
