<svg width="24" height="24" viewBox="0 0 24 24" fill="none" xmlns="http://www.w3.org/2000/svg">
<path d="M11.7275 2.85156C11.8752 2.71617 12.0844 2.71591 12.2334 2.85156L21.0957 10.9453C21.2464 11.0829 21.2864 11.2835 21.2178 11.4756C21.1498 11.6656 21.0097 11.7636 20.8428 11.7637H20.6396C19.5554 11.7638 18.7354 12.6749 18.7354 13.7236V20.791C18.7351 21.078 18.5221 21.25 18.3311 21.25H15.2393V15.8066C15.2393 15.0477 14.6439 14.3721 13.8369 14.3721H10.1631C9.3556 14.3721 8.76074 15.0482 8.76074 15.8066V21.25H5.46582C5.27491 21.25 5.06055 21.0771 5.06055 20.79V13.7236C5.06055 12.6749 4.24148 11.7639 3.15723 11.7637C2.9907 11.7637 2.85035 11.6659 2.78223 11.4766C2.71348 11.285 2.75306 11.0842 2.90332 10.9463L11.7275 2.85254V2.85156Z" stroke="#126DFB" stroke-width="1.5"/>
</svg>
